<svg width="328" height="430" viewBox="0 0 328 430" fill="none" xmlns="http://www.w3.org/2000/svg">
<path d="M209.872 61.953C215.245 64.0859 327.071 204.865 327.071 213.166C327.071 221.467 216.129 367.67 209.23 367.77C202.332 367.87 136 321.967 136 316.897C136 311.828 216.129 219.82 216.129 213.166C216.129 206.512 135.987 115.066 136 107.404C136.013 99.7409 204.5 59.8202 209.872 61.953Z" fill="url(#paint0_linear_372_415)"/>
<path d="M108.254 0.985944C116.127 3.97195 280 201.063 280 212.684C280 224.305 117.422 428.989 107.313 429.129C97.204 429.269 2.34749e-06 365.005 2.34749e-06 357.908C2.34749e-06 350.811 117.422 222 117.422 212.684C117.422 203.368 -0.0191714 75.3447 2.34749e-06 64.6168C0.0191761 53.8889 100.381 -2.00006 108.254 0.985944Z" fill="#E7ECEF"/>
<defs>
<linearGradient id="paint0_linear_372_415" x1="231.536" y1="61.8706" x2="232" y2="331" gradientUnits="userSpaceOnUse">
<stop stop-color="#274C77"/>
<stop offset="1" stop-color="#274C77" stop-opacity="0"/>
</linearGradient>
</defs>
</svg>
