<svg width="33" height="32" viewBox="0 0 33 32" fill="none" xmlns="http://www.w3.org/2000/svg">
<rect x="0.666656" width="32" height="32" rx="16" fill="#E7ECEF"/>
<path d="M24.6667 11H8.66666C7.56209 11 6.66666 11.8954 6.66666 13V23C6.66666 24.1046 7.56209 25 8.66666 25H24.6667C25.7712 25 26.6667 24.1046 26.6667 23V13C26.6667 11.8954 25.7712 11 24.6667 11Z" stroke="black" stroke-width="2" stroke-linecap="round" stroke-linejoin="round"/>
<path d="M20.6667 25V9C20.6667 8.46957 20.4559 7.96086 20.0809 7.58579C19.7058 7.21071 19.1971 7 18.6667 7H14.6667C14.1362 7 13.6275 7.21071 13.2524 7.58579C12.8774 7.96086 12.6667 8.46957 12.6667 9V25" stroke="black" stroke-width="2" stroke-linecap="round" stroke-linejoin="round"/>
</svg>
