<svg width="32" height="32" viewBox="0 0 32 32" fill="none" xmlns="http://www.w3.org/2000/svg">
<rect width="32" height="32" rx="16" fill="#E7ECEF"/>
<mask id="mask0_706_1031" style="mask-type:alpha" maskUnits="userSpaceOnUse" x="4" y="4" width="24" height="24">
<rect x="4" y="4" width="24" height="24" fill="#274C77"/>
</mask>
<g mask="url(#mask0_706_1031)">
<path d="M15.0252 25V22.85C14.1419 22.65 13.3794 22.2667 12.7377 21.7C12.096 21.1333 11.6252 20.3333 11.3252 19.3L13.1752 18.55C13.4252 19.35 13.796 19.9583 14.2877 20.375C14.7794 20.7917 15.4252 21 16.2252 21C16.9085 21 17.4877 20.8458 17.9627 20.5375C18.4377 20.2292 18.6752 19.75 18.6752 19.1C18.6752 18.5167 18.4919 18.0542 18.1252 17.7125C17.7585 17.3708 16.9085 16.9833 15.5752 16.55C14.1419 16.1 13.1585 15.5625 12.6252 14.9375C12.0919 14.3125 11.8252 13.55 11.8252 12.65C11.8252 11.5667 12.1752 10.725 12.8752 10.125C13.5752 9.525 14.2919 9.18333 15.0252 9.1V7H17.0252V9.1C17.8585 9.23333 18.546 9.5375 19.0877 10.0125C19.6294 10.4875 20.0252 11.0667 20.2752 11.75L18.4252 12.55C18.2252 12.0167 17.9419 11.6167 17.5752 11.35C17.2085 11.0833 16.7085 10.95 16.0752 10.95C15.3419 10.95 14.7835 11.1125 14.4002 11.4375C14.0169 11.7625 13.8252 12.1667 13.8252 12.65C13.8252 13.2 14.0752 13.6333 14.5752 13.95C15.0752 14.2667 15.9419 14.6 17.1752 14.95C18.3252 15.2833 19.196 15.8125 19.7877 16.5375C20.3794 17.2625 20.6752 18.1 20.6752 19.05C20.6752 20.2333 20.3252 21.1333 19.6252 21.75C18.9252 22.3667 18.0585 22.75 17.0252 22.9V25H15.0252Z" fill="#274C77"/>
</g>
</svg>
