<svg width="24" height="25" viewBox="0 0 24 25" fill="none" xmlns="http://www.w3.org/2000/svg">
<path d="M15 22.5V18.5C15.1391 17.2473 14.7799 15.9901 14 15C17 15 20 13 20 9.5C20.08 8.25 19.73 7.02 19 6C19.28 4.85 19.28 3.65 19 2.5C19 2.5 18 2.5 16 4C13.36 3.5 10.64 3.5 8.00001 4C6.00001 2.5 5.00001 2.5 5.00001 2.5C4.70001 3.65 4.70001 4.85 5.00001 6C4.27188 7.01588 3.91848 8.25279 4.00001 9.5C4.00001 13 7.00001 15 10 15C9.61001 15.49 9.32001 16.05 9.15001 16.65C8.98001 17.25 8.93001 17.88 9.00001 18.5V22.5" stroke="#F9F9F9" stroke-width="2" stroke-linecap="round" stroke-linejoin="round"/>
<path d="M9 18.5C4.49 20.5 4 16.5 2 16.5" stroke="#F9F9F9" stroke-width="2" stroke-linecap="round" stroke-linejoin="round"/>
</svg>
