<svg width="25" height="25" viewBox="0 0 25 25" fill="none" xmlns="http://www.w3.org/2000/svg">
<mask id="mask0_785_653" style="mask-type:alpha" maskUnits="userSpaceOnUse" x="0" y="0" width="25" height="25">
<rect x="0.569336" y="0.911926" width="24" height="24" fill="#D9D9D9"/>
</mask>
<g mask="url(#mask0_785_653)">
<path d="M12.4446 20.9119C12.5112 20.9119 12.5779 20.8953 12.6446 20.8619C12.7112 20.8286 12.7612 20.7953 12.7946 20.7619L20.9946 12.5619C21.1946 12.3619 21.3404 12.1369 21.4321 11.8869C21.5237 11.6369 21.5696 11.3869 21.5696 11.1369C21.5696 10.8703 21.5237 10.6161 21.4321 10.3744C21.3404 10.1328 21.1946 9.92026 20.9946 9.73693L16.7446 5.48693C16.5612 5.28693 16.3487 5.14109 16.1071 5.04943C15.8654 4.95776 15.6112 4.91193 15.3446 4.91193C15.0946 4.91193 14.8446 4.95776 14.5946 5.04943C14.3446 5.14109 14.1196 5.28693 13.9196 5.48693L13.6446 5.76193L15.4946 7.63693C15.7446 7.87026 15.9279 8.13693 16.0446 8.43693C16.1612 8.73693 16.2196 9.05359 16.2196 9.38693C16.2196 10.0869 15.9821 10.6744 15.5071 11.1494C15.0321 11.6244 14.4446 11.8619 13.7446 11.8619C13.4112 11.8619 13.0904 11.8036 12.7821 11.6869C12.4737 11.5703 12.2029 11.3953 11.9696 11.1619L10.0946 9.31193L5.71957 13.6869C5.66957 13.7369 5.63207 13.7911 5.60707 13.8494C5.58207 13.9078 5.56957 13.9703 5.56957 14.0369C5.56957 14.1703 5.61957 14.2911 5.71957 14.3994C5.81957 14.5078 5.93624 14.5619 6.06957 14.5619C6.13624 14.5619 6.2029 14.5453 6.26957 14.5119C6.33624 14.4786 6.38624 14.4453 6.41957 14.4119L9.81957 11.0119L11.2196 12.4119L7.84457 15.8119C7.79457 15.8619 7.75707 15.9161 7.73207 15.9744C7.70707 16.0328 7.69457 16.0953 7.69457 16.1619C7.69457 16.2953 7.74457 16.4119 7.84457 16.5119C7.94457 16.6119 8.06124 16.6619 8.19457 16.6619C8.26124 16.6619 8.3279 16.6453 8.39457 16.6119C8.46124 16.5786 8.51124 16.5453 8.54457 16.5119L11.9446 13.1369L13.3446 14.5369L9.96957 17.9369C9.91957 17.9703 9.88207 18.0203 9.85707 18.0869C9.83207 18.1536 9.81957 18.2203 9.81957 18.2869C9.81957 18.4203 9.86957 18.5369 9.96957 18.6369C10.0696 18.7369 10.1862 18.7869 10.3196 18.7869C10.3862 18.7869 10.4487 18.7744 10.5071 18.7494C10.5654 18.7244 10.6196 18.6869 10.6696 18.6369L14.0696 15.2619L15.4696 16.6619L12.0696 20.0619C12.0196 20.1119 11.9821 20.1661 11.9571 20.2244C11.9321 20.2828 11.9196 20.3453 11.9196 20.4119C11.9196 20.5453 11.9737 20.6619 12.0821 20.7619C12.1904 20.8619 12.3112 20.9119 12.4446 20.9119ZM12.4196 22.9119C11.8029 22.9119 11.2571 22.7078 10.7821 22.2994C10.3071 21.8911 10.0279 21.3786 9.94457 20.7619C9.3779 20.6786 8.9029 20.4453 8.51957 20.0619C8.13624 19.6786 7.9029 19.2036 7.81957 18.6369C7.2529 18.5536 6.78207 18.3161 6.40707 17.9244C6.03207 17.5328 5.8029 17.0619 5.71957 16.5119C5.08624 16.4286 4.56957 16.1536 4.16957 15.6869C3.76957 15.2203 3.56957 14.6703 3.56957 14.0369C3.56957 13.7036 3.63207 13.3828 3.75707 13.0744C3.88207 12.7661 4.06124 12.4953 4.29457 12.2619L10.0946 6.48693L13.3696 9.76193C13.4029 9.81193 13.4529 9.84943 13.5196 9.87443C13.5862 9.89943 13.6529 9.91193 13.7196 9.91193C13.8696 9.91193 13.9946 9.86609 14.0946 9.77443C14.1946 9.68276 14.2446 9.56193 14.2446 9.41193C14.2446 9.34526 14.2321 9.27859 14.2071 9.21193C14.1821 9.14526 14.1446 9.09526 14.0946 9.06193L10.5196 5.48693C10.3362 5.28693 10.1237 5.14109 9.88207 5.04943C9.6404 4.95776 9.38624 4.91193 9.11957 4.91193C8.86957 4.91193 8.61957 4.95776 8.36957 5.04943C8.11957 5.14109 7.89457 5.28693 7.69457 5.48693L4.16957 9.03693C4.01957 9.18693 3.89457 9.36193 3.79457 9.56193C3.69457 9.76193 3.6279 9.96193 3.59457 10.1619C3.56124 10.3619 3.56124 10.5661 3.59457 10.7744C3.6279 10.9828 3.69457 11.1786 3.79457 11.3619L2.34457 12.8119C2.06124 12.4286 1.8529 12.0078 1.71957 11.5494C1.58624 11.0911 1.53624 10.6286 1.56957 10.1619C1.6029 9.69526 1.71957 9.24109 1.91957 8.79943C2.11957 8.35776 2.39457 7.96193 2.74457 7.61193L6.26957 4.08693C6.66957 3.70359 7.1154 3.41193 7.60707 3.21193C8.09874 3.01193 8.6029 2.91193 9.11957 2.91193C9.63624 2.91193 10.1404 3.01193 10.6321 3.21193C11.1237 3.41193 11.5612 3.70359 11.9446 4.08693L12.2196 4.36193L12.4946 4.08693C12.8946 3.70359 13.3404 3.41193 13.8321 3.21193C14.3237 3.01193 14.8279 2.91193 15.3446 2.91193C15.8612 2.91193 16.3654 3.01193 16.8571 3.21193C17.3487 3.41193 17.7862 3.70359 18.1696 4.08693L22.3946 8.31193C22.7779 8.69526 23.0696 9.13693 23.2696 9.63693C23.4696 10.1369 23.5696 10.6453 23.5696 11.1619C23.5696 11.6786 23.4696 12.1828 23.2696 12.6744C23.0696 13.1661 22.7779 13.6036 22.3946 13.9869L14.1946 22.1619C13.9612 22.3953 13.6904 22.5786 13.3821 22.7119C13.0737 22.8453 12.7529 22.9119 12.4196 22.9119Z" fill="#274C77"/>
</g>
</svg>
