<svg width="14" height="18" viewBox="0 0 14 18" fill="none" xmlns="http://www.w3.org/2000/svg">
<path d="M6.99967 9.00002C7.45801 9.00002 7.85037 8.83683 8.17676 8.51044C8.50315 8.18405 8.66634 7.79169 8.66634 7.33335C8.66634 6.87502 8.50315 6.48266 8.17676 6.15627C7.85037 5.82988 7.45801 5.66669 6.99967 5.66669C6.54134 5.66669 6.14898 5.82988 5.82259 6.15627C5.4962 6.48266 5.33301 6.87502 5.33301 7.33335C5.33301 7.79169 5.4962 8.18405 5.82259 8.51044C6.14898 8.83683 6.54134 9.00002 6.99967 9.00002ZM6.99967 15.125C8.69412 13.5695 9.95106 12.1563 10.7705 10.8854C11.59 9.6146 11.9997 8.48613 11.9997 7.50002C11.9997 5.98613 11.517 4.74655 10.5518 3.78127C9.58648 2.81599 8.40245 2.33335 6.99967 2.33335C5.5969 2.33335 4.41287 2.81599 3.44759 3.78127C2.48231 4.74655 1.99967 5.98613 1.99967 7.50002C1.99967 8.48613 2.4094 9.6146 3.22884 10.8854C4.04829 12.1563 5.30523 13.5695 6.99967 15.125ZM6.99967 17.3334C4.76356 15.4306 3.09342 13.6632 1.98926 12.0313C0.885091 10.3993 0.333008 8.88891 0.333008 7.50002C0.333008 5.41669 1.00315 3.75696 2.34342 2.52085C3.6837 1.28474 5.23579 0.666687 6.99967 0.666687C8.76356 0.666687 10.3156 1.28474 11.6559 2.52085C12.9962 3.75696 13.6663 5.41669 13.6663 7.50002C13.6663 8.88891 13.1143 10.3993 12.0101 12.0313C10.9059 13.6632 9.23579 15.4306 6.99967 17.3334Z" fill="#1D1D1D"/>
</svg>
