<svg width="24" height="25" viewBox="0 0 24 25" fill="none" xmlns="http://www.w3.org/2000/svg">
<path d="M18.37 3.12999L14 7.49999L12.41 5.90999C12.0353 5.53749 11.5284 5.3284 11 5.3284C10.4716 5.3284 9.96473 5.53749 9.59 5.90999L8 7.49999L17 16.5L18.59 14.91C18.9625 14.5353 19.1716 14.0284 19.1716 13.5C19.1716 12.9716 18.9625 12.4647 18.59 12.09L17 10.5L21.37 6.12999C21.7678 5.73216 21.9913 5.1926 21.9913 4.62999C21.9913 4.06738 21.7678 3.52781 21.37 3.12999C20.9722 2.73216 20.4326 2.50867 19.87 2.50867C19.3074 2.50867 18.7678 2.73216 18.37 3.12999Z" stroke="#F7F7F7" stroke-width="2" stroke-linecap="round" stroke-linejoin="round"/>
<path d="M9 8.5C7 11.5 5 12 2 12.5L10 22.5C12 21.5 16 17.5 16 15.5" stroke="#F7F7F7" stroke-width="2" stroke-linecap="round" stroke-linejoin="round"/>
<path d="M14.5 18L4.5 15.5" stroke="#F7F7F7" stroke-width="2" stroke-linecap="round" stroke-linejoin="round"/>
</svg>
