<svg width="24" height="25" viewBox="0 0 24 25" fill="none" xmlns="http://www.w3.org/2000/svg">
<path d="M13.5 7.5C13.7761 7.5 14 7.27614 14 7C14 6.72386 13.7761 6.5 13.5 6.5C13.2239 6.5 13 6.72386 13 7C13 7.27614 13.2239 7.5 13.5 7.5Z" stroke="#F7F7F7" stroke-width="2" stroke-linecap="round" stroke-linejoin="round"/>
<path d="M17.5 11.5C17.7761 11.5 18 11.2761 18 11C18 10.7239 17.7761 10.5 17.5 10.5C17.2239 10.5 17 10.7239 17 11C17 11.2761 17.2239 11.5 17.5 11.5Z" stroke="#F7F7F7" stroke-width="2" stroke-linecap="round" stroke-linejoin="round"/>
<path d="M8.5 8.5C8.77614 8.5 9 8.27614 9 8C9 7.72386 8.77614 7.5 8.5 7.5C8.22386 7.5 8 7.72386 8 8C8 8.27614 8.22386 8.5 8.5 8.5Z" stroke="#F7F7F7" stroke-width="2" stroke-linecap="round" stroke-linejoin="round"/>
<path d="M6.5 13.5C6.77614 13.5 7 13.2761 7 13C7 12.7239 6.77614 12.5 6.5 12.5C6.22386 12.5 6 12.7239 6 13C6 13.2761 6.22386 13.5 6.5 13.5Z" stroke="#F7F7F7" stroke-width="2" stroke-linecap="round" stroke-linejoin="round"/>
<path d="M12 2.5C6.5 2.5 2 7 2 12.5C2 18 6.5 22.5 12 22.5C12.926 22.5 13.648 21.754 13.648 20.812C13.648 20.375 13.468 19.977 13.211 19.687C12.921 19.398 12.773 19.035 12.773 18.562C12.7692 18.3419 12.8098 18.1233 12.8922 17.9192C12.9747 17.7151 13.0975 17.5298 13.2531 17.3741C13.4088 17.2185 13.5941 17.0957 13.7982 17.0132C14.0023 16.9308 14.2209 16.8902 14.441 16.894H16.437C19.488 16.894 21.992 14.391 21.992 11.34C21.965 6.512 17.461 2.5 12 2.5Z" stroke="#F7F7F7" stroke-width="2" stroke-linecap="round" stroke-linejoin="round"/>
</svg>
