<svg width="40" height="40" viewBox="0 0 40 40" fill="none" xmlns="http://www.w3.org/2000/svg">
<rect width="40" height="40" rx="20" fill="#E7ECEF"/>
<mask id="mask0_712_648" style="mask-type:alpha" maskUnits="userSpaceOnUse" x="8" y="8" width="24" height="24">
<rect x="8" y="8" width="24" height="24" fill="#D9D9D9"/>
</mask>
<g mask="url(#mask0_712_648)">
<path d="M19.9 30L24.45 18H26.55L31.1 30H29L27.95 26.95H23.1L22 30H19.9ZM23.7 25.2H27.3L25.55 20.25H25.45L23.7 25.2ZM12 27L10.6 25.6L15.65 20.55C15.0167 19.85 14.4625 19.125 13.9875 18.375C13.5125 17.625 13.1 16.8333 12.75 16H14.85C15.15 16.6 15.4708 17.1417 15.8125 17.625C16.1542 18.1083 16.5667 18.6167 17.05 19.15C17.7833 18.35 18.3917 17.5292 18.875 16.6875C19.3583 15.8458 19.7667 14.95 20.1 14H9V12H16V10H18V12H25V14H22.1C21.75 15.1833 21.275 16.3333 20.675 17.45C20.075 18.5667 19.3333 19.6167 18.45 20.6L20.85 23.05L20.1 25.1L17 22L12 27Z" fill="#274C77"/>
</g>
</svg>
