<svg width="33" height="32" viewBox="0 0 33 32" fill="none" xmlns="http://www.w3.org/2000/svg">
<rect x="0.666656" width="32" height="32" rx="16" fill="#E7ECEF"/>
<path d="M20.5 25V23C20.5 21.9391 20.0786 20.9217 19.3285 20.1716C18.5783 19.4214 17.5609 19 16.5 19H10.5C9.43916 19 8.42175 19.4214 7.6716 20.1716C6.92146 20.9217 6.50003 21.9391 6.50003 23V25" stroke="black" stroke-width="2" stroke-linecap="round" stroke-linejoin="round"/>
<path d="M13.5 15C15.7092 15 17.5 13.2091 17.5 11C17.5 8.79086 15.7092 7 13.5 7C11.2909 7 9.50003 8.79086 9.50003 11C9.50003 13.2091 11.2909 15 13.5 15Z" stroke="black" stroke-width="2" stroke-linecap="round" stroke-linejoin="round"/>
<path d="M26.5 25V23C26.4994 22.1137 26.2044 21.2528 25.6614 20.5523C25.1184 19.8519 24.3582 19.3516 23.5 19.13" stroke="black" stroke-width="2" stroke-linecap="round" stroke-linejoin="round"/>
<path d="M20.5 7.13C21.3604 7.35031 22.1231 7.85071 22.6677 8.55232C23.2123 9.25392 23.5079 10.1168 23.5079 11.005C23.5079 11.8932 23.2123 12.7561 22.6677 13.4577C22.1231 14.1593 21.3604 14.6597 20.5 14.88" stroke="black" stroke-width="2" stroke-linecap="round" stroke-linejoin="round"/>
</svg>
